# xmcd
#
# Track frame offsets:
#       150
#       12445
#       27695
#       38493
#       53138
#       68070
#       80100
#       104420
#       113613
#       131328
#       148380
#       165903
#       183370
#       195618
#
# Disc length: 2754 seconds
#
# Revision: 0
# Processed by: cddbd v1.4PL0 Copyright (c) Steve Scherf et al.
# Submitted via: CD-DA_X-Tractor v0.23
#
DISCID=bd0ac00e
DTITLE=Blue In The Face - In The Red
DYEAR=1994
DGENRE=blues
TTITLE0=In The Red
TTITLE1=Wild Town
TTITLE2=She's My Baby
TTITLE3=Man Of Many Words
TTITLE4=Noise On The Line
TTITLE5=Cruiser
TTITLE6=Call Me
TTITLE7=Yeah, Yeah, Yeah
TTITLE8=See Me
TTITLE9=Trouble With Choices
TTITLE10=Nobody's Home
TTITLE11=Bulldog
TTITLE12=I Don't Have The Blues
TTITLE13=Waiting For The Dentist
EXTD=
EXTT0=
EXTT1=
EXTT2=
EXTT3=
EXTT4=
EXTT5=
EXTT6=
EXTT7=
EXTT8=
EXTT9=
EXTT10=
EXTT11=
EXTT12=
EXTT13=
PLAYORDER=
